<svg width="64" height="64" viewBox="0 0 64 64" fill="none" xmlns="http://www.w3.org/2000/svg">
<path d="M47.8125 31.875C47.8125 25.6063 44.2 20.2229 38.9583 17.6021V25.4292L47.6354 34.1063C47.7417 33.3979 47.8125 32.6542 47.8125 31.875ZM56.6667 31.875C56.6667 35.2042 55.9583 38.3208 54.7542 41.225L60.1021 46.5729C62.4396 42.1812 63.75 37.1875 63.75 31.875C63.75 16.7167 53.1604 4.0375 38.9583 0.814583V8.11042C49.1938 11.1563 56.6667 20.6479 56.6667 31.875ZM4.49792 0L0 4.49792L16.7521 21.25H0V42.5H14.1667L31.875 60.2083V36.3729L46.9271 51.425C44.5542 53.2667 41.8979 54.7188 38.9583 55.6042V62.9C43.8458 61.8021 48.2729 59.5354 52.0271 56.4896L59.2521 63.75L63.75 59.2521L4.49792 0ZM31.875 3.54167L24.4729 10.9438L31.875 18.3458V3.54167Z" fill="white"/>
</svg>
